<svg width="82" height="87" viewBox="0 0 82 87" fill="none" xmlns="http://www.w3.org/2000/svg">
<path fill-rule="evenodd" clip-rule="evenodd" d="M71.3396 12.4467V5.85436L73.0496 6.011C73.6594 6.09419 74.5294 6.55587 75.6573 7.40204C79.8856 9.88288 82 14.2321 82 20.4521V71.7535C82 76.6566 80.6811 80.4236 78.0424 83.0541C75.4023 85.6848 71.6245 87 66.706 87H15.2933C10.3455 87 6.56691 85.6847 3.95759 83.0541C1.319 80.4218 0 76.6557 0 71.7535V20.4502C0 15.547 1.31893 11.7801 3.95759 9.14956C6.56537 6.51734 10.3447 5.20362 15.2933 5.20362H16.4182L16.419 0H22.7158V17.5357H16.419V11.4806H15.294C12.0855 11.4806 9.77701 12.1836 8.36638 13.5896C6.98729 14.9641 6.29778 17.25 6.29778 20.4511V27.8499H75.7014V20.4511C76.0225 16.0052 74.569 13.3348 71.3386 12.4458L71.3396 12.4467ZM64.233 17.7612H57.9361V11.482H28.1584V5.20431H57.9342V0.000688H64.231V17.7611L64.233 17.7612ZM44.9811 47.493H37.1089V39.5537H44.9811V47.493ZM50.0627 39.5537H57.9342V47.493H50.0627V39.5537ZM57.9342 52.6494V60.5415H50.0627V52.6494H57.9342ZM32.3876 47.493H24.5154V39.5537H32.3876V47.493ZM37.1098 66.2374H44.9821V74.1744H37.1098V66.2374ZM32.3876 74.1728H24.5154V66.2374H32.3876V74.1728ZM50.0637 74.1728V66.2374H57.9352V74.1744H50.0637V74.1728ZM44.9821 52.6492V60.5413H37.1098V52.6492H44.9821ZM32.3876 60.5405H24.5154V52.6484H32.3876V60.5405ZM70.3966 47.4928H62.5251V39.5535H70.3966V47.4928ZM70.3966 52.6492V60.5413H62.5251V52.6492H70.3966ZM62.5251 66.2372H70.3966V74.1742H62.5251V66.2372ZM73.59 78.6142C74.9991 77.2396 75.7044 74.9514 75.7044 71.7526V34.1294H6.2988V71.7526C6.2988 74.9514 6.98833 77.2396 8.3674 78.6142C9.77655 80.0187 12.0865 80.7216 15.2951 80.7216H66.7077C69.9171 80.7201 72.2105 80.0179 73.5896 78.6134L73.59 78.6142ZM19.4785 47.4933H11.6062V39.5541H19.4785V47.4933ZM19.4785 52.6498V60.5418L11.6062 60.5411V52.649L19.4785 52.6498ZM19.4785 66.2378V74.1748H11.6062V66.2378H19.4785Z" fill="#1E66FF"/>
</svg>
