<svg width="147" height="26" viewBox="0 0 147 26" fill="none" xmlns="http://www.w3.org/2000/svg">
<path d="M14.7286 5.19531L9.20906 22H5.84578L0.349688 5.19531H4.17L7.52156 16.4102L10.8848 5.19531H14.7286ZM18.7491 22H15.3858V5.19531H18.7491V22ZM30.8086 15.2852V11.9219C30.8086 11.4609 30.7188 11.0273 30.5391 10.6211C30.3672 10.207 30.1289 9.84766 29.8242 9.54297C29.5195 9.23828 29.1602 9 28.7461 8.82812C28.3398 8.64844 27.9062 8.55859 27.4453 8.55859C26.9844 8.55859 26.5469 8.64844 26.1328 8.82812C25.7266 9 25.3711 9.23828 25.0664 9.54297C24.7617 9.84766 24.5195 10.207 24.3398 10.6211C24.168 11.0273 24.082 11.4609 24.082 11.9219V15.2852H30.8086ZM34.1719 22H30.8086V18.6367H24.082V22H20.7305V11.9219C20.7305 10.9922 20.9062 10.1211 21.2578 9.30859C21.6094 8.48828 22.0859 7.77344 22.6875 7.16406C23.2969 6.55469 24.0078 6.07422 24.8203 5.72266C25.6406 5.37109 26.5156 5.19531 27.4453 5.19531C28.375 5.19531 29.2461 5.37109 30.0586 5.72266C30.8789 6.07422 31.5938 6.55469 32.2031 7.16406C32.8125 7.77344 33.293 8.48828 33.6445 9.30859C33.9961 10.1211 34.1719 10.9922 34.1719 11.9219V22ZM43.208 15.2852C43.208 16.2148 43.0322 17.0898 42.6806 17.9102C42.3291 18.7227 41.8486 19.4336 41.2392 20.043C40.6377 20.6445 39.9267 21.1211 39.1064 21.4727C38.2939 21.8242 37.4228 22 36.4931 22C35.9306 22 35.3681 21.9297 34.8056 21.7891V18.1797C35.0556 18.3281 35.3252 18.4414 35.6142 18.5195C35.9033 18.5977 36.1963 18.6367 36.4931 18.6367C36.9541 18.6367 37.3877 18.5508 37.7939 18.3789C38.208 18.1992 38.5673 17.957 38.872 17.6523C39.1767 17.3477 39.415 16.9922 39.5869 16.5859C39.7666 16.1797 39.8564 15.7461 39.8564 15.2852V5.19531H43.208V15.2852ZM54.9511 15.2852V11.9219C54.9511 11.4609 54.8613 11.0273 54.6816 10.6211C54.5097 10.207 54.2714 9.84766 53.9667 9.54297C53.662 9.23828 53.3027 9 52.8886 8.82812C52.4823 8.64844 52.0488 8.55859 51.5878 8.55859C51.1269 8.55859 50.6894 8.64844 50.2753 8.82812C49.8691 9 49.5136 9.23828 49.2089 9.54297C48.9042 9.84766 48.662 10.207 48.4823 10.6211C48.3105 11.0273 48.2245 11.4609 48.2245 11.9219V15.2852H54.9511ZM58.3144 22H54.9511V18.6367H48.2245V22H44.873V11.9219C44.873 10.9922 45.0488 10.1211 45.4003 9.30859C45.7519 8.48828 46.2284 7.77344 46.83 7.16406C47.4394 6.55469 48.1503 6.07422 48.9628 5.72266C49.7831 5.37109 50.6581 5.19531 51.5878 5.19531C52.5175 5.19531 53.3886 5.37109 54.2011 5.72266C55.0214 6.07422 55.7363 6.55469 56.3456 7.16406C56.955 7.77344 57.4355 8.48828 57.787 9.30859C58.1386 10.1211 58.3144 10.9922 58.3144 11.9219V22Z" fill="black"/>
<path d="M116.429 22H113.077V10C113.077 9.76562 113.03 9.54688 112.937 9.34375C112.851 9.14062 112.73 8.96484 112.573 8.81641C112.425 8.66016 112.249 8.53906 112.046 8.45312C111.843 8.36719 111.624 8.32422 111.39 8.32422C111.155 8.32422 110.937 8.36719 110.733 8.45312C110.53 8.53906 110.351 8.66016 110.194 8.81641C110.046 8.96484 109.929 9.14062 109.843 9.34375C109.757 9.54688 109.714 9.76562 109.714 10V22H106.351V10C106.351 9.76562 106.308 9.54688 106.222 9.34375C106.136 9.14062 106.015 8.96484 105.858 8.81641C105.71 8.66016 105.534 8.53906 105.331 8.45312C105.128 8.36719 104.909 8.32422 104.675 8.32422C104.44 8.32422 104.222 8.36719 104.019 8.45312C103.815 8.53906 103.636 8.66016 103.48 8.81641C103.331 8.96484 103.214 9.14062 103.128 9.34375C103.042 9.54688 102.999 9.76562 102.999 10V22H99.6358V10C99.6358 9.30469 99.7647 8.65234 100.022 8.04297C100.288 7.42578 100.647 6.89063 101.101 6.4375C101.562 5.97656 102.097 5.61719 102.706 5.35938C103.323 5.09375 103.98 4.96094 104.675 4.96094C105.3 4.96094 105.901 5.07422 106.48 5.30078C107.058 5.51953 107.577 5.83984 108.038 6.26172C108.499 5.83984 109.015 5.51953 109.585 5.30078C110.163 5.07422 110.765 4.96094 111.39 4.96094C112.085 4.96094 112.737 5.09375 113.347 5.35938C113.964 5.61719 114.499 5.97656 114.952 6.4375C115.413 6.89063 115.772 7.42578 116.03 8.04297C116.296 8.65234 116.429 9.30469 116.429 10V22ZM131.734 15.2852C131.734 16.2148 131.559 17.0898 131.207 17.9102C130.855 18.7227 130.375 19.4336 129.766 20.043C129.156 20.6445 128.441 21.1211 127.621 21.4727C126.809 21.8242 125.938 22 125.008 22C124.078 22 123.203 21.8242 122.383 21.4727C121.57 21.1211 120.859 20.6445 120.25 20.043C119.648 19.4336 119.172 18.7227 118.82 17.9102C118.469 17.0898 118.293 16.2148 118.293 15.2852V5.19531H121.645V15.2852C121.645 15.7461 121.73 16.1797 121.902 16.5859C122.082 16.9922 122.324 17.3477 122.629 17.6523C122.934 17.957 123.289 18.1992 123.695 18.3789C124.109 18.5508 124.547 18.6367 125.008 18.6367C125.469 18.6367 125.902 18.5508 126.309 18.3789C126.723 18.1992 127.082 17.957 127.387 17.6523C127.691 17.3477 127.93 16.9922 128.102 16.5859C128.281 16.1797 128.371 15.7461 128.371 15.2852V5.19531H131.734V15.2852ZM132.708 10.2344C132.708 9.53906 132.841 8.88672 133.106 8.27734C133.372 7.66797 133.731 7.13672 134.185 6.68359C134.645 6.22266 135.181 5.85938 135.79 5.59375C136.399 5.32812 137.052 5.19531 137.747 5.19531H145.458V8.55859H137.747C137.513 8.55859 137.294 8.60156 137.091 8.6875C136.888 8.77344 136.708 8.89453 136.552 9.05078C136.403 9.19922 136.286 9.375 136.2 9.57812C136.114 9.78125 136.071 10 136.071 10.2344C136.071 10.4688 136.114 10.6914 136.2 10.9023C136.286 11.1055 136.403 11.2852 136.552 11.4414C136.708 11.5898 136.888 11.707 137.091 11.793C137.294 11.8789 137.513 11.9219 137.747 11.9219H141.11C141.806 11.9219 142.458 12.0547 143.067 12.3203C143.685 12.5781 144.22 12.9375 144.673 13.3984C145.134 13.8516 145.493 14.3867 145.751 15.0039C146.017 15.6133 146.149 16.2656 146.149 16.9609C146.149 17.6562 146.017 18.3086 145.751 18.918C145.493 19.5273 145.134 20.0625 144.673 20.5234C144.22 20.9766 143.685 21.3359 143.067 21.6016C142.458 21.8672 141.806 22 141.11 22H133.645V18.6367H141.11C141.345 18.6367 141.563 18.5938 141.767 18.5078C141.97 18.4219 142.145 18.3047 142.294 18.1562C142.45 18 142.571 17.8203 142.657 17.6172C142.743 17.4141 142.786 17.1953 142.786 16.9609C142.786 16.7266 142.743 16.5078 142.657 16.3047C142.571 16.1016 142.45 15.9258 142.294 15.7773C142.145 15.6211 141.97 15.5 141.767 15.4141C141.563 15.3281 141.345 15.2852 141.11 15.2852H137.747C137.052 15.2852 136.399 15.1523 135.79 14.8867C135.181 14.6211 134.645 14.2617 134.185 13.8086C133.731 13.3477 133.372 12.8125 133.106 12.2031C132.841 11.5859 132.708 10.9297 132.708 10.2344Z" fill="black"/>
<path d="M68.8388 18.1234L71.9283 18.9597C72.0243 18.9864 72.1219 19 72.2201 19C72.4171 19 72.6123 18.9473 72.7857 18.8469L89.4343 9.13375C89.9757 8.81848 90.1603 8.11877 89.8484 7.57271C89.5352 7.02554 88.8417 6.83672 88.3036 7.15425L80.8744 11.4885L72.0587 9.10199C71.4572 8.93642 70.836 9.29988 70.6744 9.91C70.5128 10.519 70.8703 11.1461 71.474 11.3094L78.1047 13.1046L72.061 16.6309L69.4238 15.9165C68.8222 15.7509 68.2005 16.1144 68.0384 16.7245C67.8779 17.334 68.2353 17.9612 68.8391 18.1233L68.8388 18.1234Z" fill="#1E66FF"/>
</svg>
