<svg width="597" height="260" viewBox="0 0 597 260" fill="none" xmlns="http://www.w3.org/2000/svg">
<rect width="595.592" height="258.992" transform="translate(0.640625 0.497803)" fill="#7A3FFF" fill-opacity="0.4"/>
<g clip-path="url(#clip0_296_531)">
<path d="M91.1709 240.263C86.028 238.837 83.8334 246.677 88.9632 248.149C94.1058 249.575 96.3005 241.735 91.1709 240.263Z" fill="#3F3D56"/>
<path d="M119.686 250.354C114.543 248.928 112.348 256.768 117.478 258.24C122.62 259.666 124.815 251.826 119.686 250.354Z" fill="#3F3D56"/>
<path d="M131.225 167.665L131.145 167.643L117.899 203.747L116.152 203.254L129.494 166.891C129.523 166.33 129.742 165.797 130.115 165.378C130.487 164.96 130.991 164.682 131.543 164.591C138.167 163.54 140.853 169.443 140.853 169.443L140.826 169.483L127.283 206.395L125.537 205.902L138.681 170.076C134.68 166.102 131.225 167.665 131.225 167.665Z" fill="#3F3D56"/>
<path d="M115.914 252.384C108.105 252.265 98.4497 248.029 91.8662 244.854C90.1222 244.014 88.7295 242.584 87.9338 240.814C87.1381 239.045 86.9905 237.05 87.517 235.182L96.0494 204.707C96.4301 203.357 97.0804 202.098 97.9608 201.008C98.8412 199.917 99.9333 199.018 101.171 198.365C102.371 197.724 103.691 197.339 105.046 197.234C106.402 197.129 107.765 197.306 109.049 197.754C109.354 197.891 117.643 200.22 123.128 201.761C126.355 202.668 128.686 203.323 128.842 203.376C128.972 203.419 134.77 205.419 133.741 212.452C132.951 217.854 126.986 237.758 124.458 246.066C123.908 247.881 122.796 249.473 121.282 250.61C119.769 251.747 117.933 252.369 116.043 252.385C116 252.385 115.957 252.385 115.914 252.384Z" fill="#7A3FFF"/>
<path d="M91.6769 239.827L102.739 202.24L128.751 209.619L128.906 209.068L102.351 201.533L102.271 201.805L91.1289 239.664L91.6769 239.827Z" fill="#3F3D56"/>
<path d="M443 19.2711H215.146V127.814H443V19.2711Z" fill="#E5E5E5"/>
<path d="M436.756 28.5789H221.932V119.14H436.756V28.5789Z" fill="white"/>
<path d="M442.903 13H215.048V22.7177H442.903V13Z" fill="#7A3FFF"/>
<path d="M222.241 19.642C223.232 19.642 224.036 18.8356 224.036 17.8408C224.036 16.8461 223.232 16.0397 222.241 16.0397C221.251 16.0397 220.447 16.8461 220.447 17.8408C220.447 18.8356 221.251 19.642 222.241 19.642Z" fill="white"/>
<path d="M229.051 19.642C230.042 19.642 230.845 18.8356 230.845 17.8408C230.845 16.8461 230.042 16.0397 229.051 16.0397C228.06 16.0397 227.257 16.8461 227.257 17.8408C227.257 18.8356 228.06 19.642 229.051 19.642Z" fill="white"/>
<path d="M235.862 19.642C236.852 19.642 237.656 18.8356 237.656 17.8408C237.656 16.8461 236.852 16.0397 235.862 16.0397C234.871 16.0397 234.067 16.8461 234.067 17.8408C234.067 18.8356 234.871 19.642 235.862 19.642Z" fill="white"/>
<path d="M323.337 72.6026C323.342 76.6998 322.614 80.7647 321.188 84.6037C320.541 86.3621 319.746 88.0625 318.814 89.6866C315.815 94.9394 311.488 99.3042 306.27 102.34C301.052 105.375 295.128 106.974 289.098 106.974C283.067 106.974 277.143 105.375 271.925 102.34C266.707 99.3042 262.38 94.9394 259.382 89.6866C259.078 89.1583 258.79 88.6222 258.518 88.0781C256.191 83.4432 254.939 78.3393 254.857 73.1494C254.775 67.9595 255.864 62.8183 258.044 58.1115C260.224 53.4048 263.437 49.2547 267.443 45.9726C271.448 42.6905 276.142 40.3616 281.172 39.1607C286.202 37.9597 291.438 37.9179 296.486 39.0384C301.535 40.1588 306.265 42.4125 310.322 45.6302C314.379 48.8479 317.658 52.9462 319.912 57.6175C322.166 62.2889 323.337 67.412 323.337 72.6026Z" fill="#F1F1F1"/>
<path d="M290.878 78.4055C294.493 78.4055 297.424 75.4634 297.424 71.8341C297.424 68.2048 294.493 65.2627 290.878 65.2627C287.263 65.2627 284.332 68.2048 284.332 71.8341C284.332 75.4634 287.263 78.4055 290.878 78.4055Z" fill="#7A3FFF"/>
<path d="M258.518 88.0782C261.402 84.9492 265.257 79.9815 268.873 83.571C270.688 85.2641 273.528 89.4598 276.247 86.7169L297.478 65.4033C297.877 65.0072 298.352 64.6952 298.873 64.4858C299.395 64.2764 299.953 64.1737 300.514 64.1838C301.076 64.1939 301.63 64.3166 302.143 64.5446C302.657 64.7726 303.12 65.1014 303.506 65.5117L321.188 84.6038C320.54 86.3622 319.746 88.0625 318.813 89.6867H259.381L258.518 88.0782Z" fill="white"/>
<path d="M393.256 65.8684C393.021 65.8684 392.796 65.962 392.63 66.1285C392.464 66.295 392.371 66.5209 392.371 66.7564C392.371 66.9919 392.464 67.2178 392.63 67.3843C392.796 67.5509 393.021 67.6444 393.256 67.6444H402.538C402.772 67.6444 402.997 67.5509 403.163 67.3843C403.329 67.2178 403.422 66.9919 403.422 66.7564C403.422 66.5209 403.329 66.295 403.163 66.1285C402.997 65.962 402.772 65.8684 402.538 65.8684H393.256Z" fill="#7A3FFF"/>
<path d="M351.437 52.8254C351.321 52.8252 351.206 52.848 351.098 52.8925C350.991 52.937 350.893 53.0024 350.811 53.0849C350.728 53.1673 350.663 53.2653 350.618 53.3732C350.574 53.481 350.551 53.5967 350.551 53.7134C350.551 53.8302 350.574 53.9458 350.618 54.0537C350.663 54.1616 350.728 54.2596 350.811 54.342C350.893 54.4245 350.991 54.4899 351.098 54.5344C351.206 54.5789 351.321 54.6017 351.437 54.6015H402.944C403.179 54.601 403.403 54.5072 403.569 54.3407C403.734 54.1742 403.827 53.9486 403.827 53.7134C403.827 53.4783 403.734 53.2527 403.569 53.0862C403.403 52.9197 403.179 52.8259 402.944 52.8254H351.437Z" fill="#E5E5E5"/>
<path d="M351.437 59.3469C351.321 59.3467 351.206 59.3695 351.098 59.414C350.991 59.4585 350.893 59.5239 350.811 59.6063C350.728 59.6888 350.663 59.7868 350.618 59.8947C350.574 60.0025 350.551 60.1182 350.551 60.2349C350.551 60.3517 350.574 60.4673 350.618 60.5752C350.663 60.6831 350.728 60.781 350.811 60.8635C350.893 60.946 350.991 61.0114 351.098 61.0559C351.206 61.1004 351.321 61.1232 351.437 61.1229H402.944C403.179 61.1224 403.403 61.0287 403.569 60.8622C403.734 60.6957 403.827 60.4701 403.827 60.2349C403.827 59.9997 403.734 59.7742 403.569 59.6077C403.403 59.4412 403.179 59.3474 402.944 59.3469H351.437Z" fill="#E5E5E5"/>
<path d="M393.256 107.714C393.021 107.715 392.797 107.809 392.631 107.975C392.466 108.142 392.373 108.367 392.373 108.602C392.373 108.838 392.466 109.063 392.631 109.23C392.797 109.396 393.021 109.49 393.256 109.49H402.538C402.654 109.491 402.769 109.468 402.877 109.423C402.984 109.379 403.082 109.314 403.165 109.231C403.247 109.149 403.312 109.051 403.357 108.943C403.401 108.835 403.424 108.719 403.424 108.602C403.424 108.486 403.401 108.37 403.357 108.262C403.312 108.154 403.247 108.056 403.165 107.974C403.082 107.891 402.984 107.826 402.877 107.782C402.769 107.737 402.654 107.714 402.538 107.714H393.256Z" fill="#7A3FFF"/>
<path d="M351.437 94.6715C351.203 94.6715 350.978 94.7651 350.812 94.9316C350.646 95.0981 350.553 95.324 350.553 95.5595C350.553 95.795 350.646 96.0209 350.812 96.1874C350.978 96.354 351.203 96.4475 351.437 96.4475H402.944C403.179 96.4475 403.404 96.354 403.57 96.1874C403.736 96.0209 403.829 95.795 403.829 95.5595C403.829 95.324 403.736 95.0981 403.57 94.9316C403.404 94.7651 403.179 94.6715 402.944 94.6715H351.437Z" fill="#E5E5E5"/>
<path d="M351.437 101.193C351.321 101.193 351.206 101.216 351.098 101.26C350.991 101.305 350.893 101.37 350.811 101.452C350.728 101.535 350.663 101.633 350.618 101.741C350.574 101.849 350.551 101.964 350.551 102.081C350.551 102.198 350.574 102.313 350.618 102.421C350.663 102.529 350.728 102.627 350.811 102.71C350.893 102.792 350.991 102.857 351.098 102.902C351.206 102.946 351.321 102.969 351.437 102.969H402.944C403.179 102.969 403.404 102.875 403.57 102.709C403.736 102.542 403.829 102.317 403.829 102.081C403.829 101.845 403.736 101.62 403.57 101.453C403.404 101.287 403.179 101.193 402.944 101.193H351.437Z" fill="#E5E5E5"/>
<path d="M382.356 42.8758H379.567L377.173 39.4314H376.16L377.362 42.8758H374.633L373.513 41.7513H372.565L373.038 43.8315L372.565 45.65H373.513L374.633 44.5256L374.651 44.4959H377.394L376.16 48.031H377.173L379.577 44.5724L379.605 44.4959H382.356C382.57 44.4959 382.776 44.4105 382.927 44.2586C383.078 44.1067 383.163 43.9007 383.163 43.6858C383.163 43.471 383.078 43.2649 382.927 43.113C382.776 42.9611 382.57 42.8758 382.356 42.8758Z" fill="#E5E5E5"/>
<path d="M379.992 87.818H375.584C375.19 87.8176 374.811 87.66 374.532 87.3798C374.253 87.0996 374.096 86.7198 374.096 86.3235V82.2986C374.094 82.0309 374.181 81.7702 374.342 81.557C374.503 81.3437 374.73 81.1899 374.987 81.1193C376.819 80.6321 378.747 80.6334 380.578 81.1233C380.838 81.1923 381.067 81.3459 381.231 81.5599C381.394 81.774 381.482 82.0365 381.48 82.3061V86.3235C381.48 86.7198 381.323 87.0996 381.044 87.3798C380.765 87.66 380.386 87.8176 379.992 87.818Z" fill="#E5E5E5"/>
<path d="M380.634 82.4448H374.942V84.5874H380.634V82.4448Z" fill="white"/>
<path d="M375.654 86.73C376.047 86.73 376.365 86.4102 376.365 86.0158C376.365 85.6214 376.047 85.3016 375.654 85.3016C375.261 85.3016 374.942 85.6214 374.942 86.0158C374.942 86.4102 375.261 86.73 375.654 86.73Z" fill="white"/>
<path d="M379.922 86.73C380.315 86.73 380.634 86.4102 380.634 86.0158C380.634 85.6214 380.315 85.3016 379.922 85.3016C379.529 85.3016 379.211 85.6214 379.211 86.0158C379.211 86.4102 379.529 86.73 379.922 86.73Z" fill="white"/>
<path d="M381.184 89.856H374.315L375.939 88.4973H379.56L381.184 89.856ZM375.383 89.4678H380.116L379.42 88.8855H376.079L375.383 89.4678Z" fill="#E5E5E5"/>
<path d="M381.539 88.0898H373.96C373.852 88.0898 373.749 88.0469 373.673 87.9705C373.596 87.894 373.554 87.7904 373.554 87.6823C373.554 87.5742 373.596 87.4705 373.673 87.394C373.749 87.3176 373.852 87.2747 373.96 87.2747H381.539C381.646 87.2747 381.749 87.3176 381.826 87.394C381.902 87.4705 381.945 87.5742 381.945 87.6823C381.945 87.7904 381.902 87.894 381.826 87.9705C381.749 88.0469 381.646 88.0898 381.539 88.0898Z" fill="#E5E5E5"/>
<path d="M137.714 170.716C137.953 170.227 138.082 169.692 138.093 169.148C138.103 168.603 137.995 168.063 137.775 167.566C137.555 167.068 137.23 166.625 136.821 166.267C136.412 165.91 135.93 165.647 135.409 165.496L134.696 152.284L129.19 156.374L130.712 168.294C130.518 169.189 130.658 170.125 131.106 170.924C131.554 171.723 132.278 172.329 133.141 172.627C134.004 172.926 134.946 172.896 135.789 172.544C136.632 172.191 137.317 171.541 137.714 170.716Z" fill="#FFB7B7"/>
<path d="M180.366 173.174C180.055 172.729 179.845 172.22 179.751 171.684C179.657 171.148 179.681 170.597 179.821 170.072C179.962 169.546 180.216 169.058 180.565 168.641C180.914 168.224 181.35 167.89 181.841 167.661L180.517 154.496L186.585 157.685L186.912 169.698C187.241 170.553 187.246 171.499 186.926 172.357C186.607 173.216 185.984 173.927 185.177 174.355C184.37 174.784 183.435 174.9 182.548 174.683C181.661 174.465 180.885 173.928 180.366 173.174Z" fill="#FFB7B7"/>
<path d="M147.983 254.109L152.318 254.109L154.381 237.322H147.982L147.983 254.109Z" fill="#FFB7B7"/>
<path d="M146.878 252.688L155.416 252.688C156.859 252.688 158.243 253.263 159.263 254.287C160.283 255.312 160.857 256.701 160.857 258.15V258.327L146.878 258.328L146.878 252.688Z" fill="#2F2E41"/>
<path d="M169.879 251.495L174.118 252.407L179.639 236.426L173.382 235.081L169.879 251.495Z" fill="#FFB7B7"/>
<path d="M169.094 249.873L177.442 251.669C178.853 251.972 180.086 252.826 180.87 254.042C181.654 255.259 181.925 256.738 181.622 258.154L181.585 258.328L167.917 255.388L169.094 249.873Z" fill="#2F2E41"/>
<path d="M140.167 158.042C140.167 158.042 135.555 172.352 140.072 188.535L144.669 207.919L145.81 250.811L155.12 247.811L158.913 182.388L176.383 212.157L167.189 247.811L177.763 248.157L189.181 209.599L179.142 173.619L177.303 164.85L140.167 158.042Z" fill="#2F2E41"/>
<path d="M177.86 110.518L168.6 105.219L152.58 104.289L141.468 110.146L145.984 141.248C145.984 141.248 137.371 153.658 140.511 161.926C144.387 172.13 178.278 177.454 177.615 167.495C176.569 151.779 174.953 152.863 173.769 145.156C172.469 136.699 181.564 125.856 181.564 125.856L177.86 110.518Z" fill="#CBCBCB"/>
<path d="M144.894 113.214L143.862 108.723C143.862 108.723 139.458 109.295 136.406 117.852C133.354 126.41 127.93 144.449 127.93 144.449L128.213 151.002C128.213 151.002 126.122 153.427 127.565 154.535C129.007 155.642 124.959 157.144 127.009 158.718C127.909 159.41 128.591 160.349 128.972 161.421C129.353 162.493 129.417 163.653 129.157 164.761L135.454 162.808L134.991 152.49L137.486 144.356L144.153 123.997L144.894 113.214Z" fill="#CBCBCB"/>
<path d="M174.469 113.979L175.871 109.624C175.871 109.624 178.455 108.563 180.361 114.543C182.268 120.523 183.173 135.656 183.173 135.656L186.877 153.695C186.877 153.695 188.261 155.992 187.525 156.651C186.79 157.309 190.758 158.235 188.451 159.455C186.145 160.675 188.65 159.192 187.789 161.974C187.223 163.801 187.803 164.761 187.803 164.761L180.673 163.321L178.728 154.074L174.317 136.882L174.469 113.979Z" fill="#CBCBCB"/>
<path d="M160.625 100.378C167.416 100.378 172.922 94.851 172.922 88.0328C172.922 81.2145 167.416 75.6873 160.625 75.6873C153.833 75.6873 148.327 81.2145 148.327 88.0328C148.327 94.851 153.833 100.378 160.625 100.378Z" fill="#2F2E41"/>
<path d="M159.362 80.3498C156.716 77.6559 153.513 75.5771 149.98 74.2596C147.713 73.4162 145.244 72.8951 142.873 73.3741C140.503 73.8531 138.26 75.4996 137.599 77.8349C137.058 79.7445 137.617 81.8005 138.456 83.598C139.295 85.3956 140.416 87.0625 141.095 88.9271C141.787 90.8297 141.996 92.8759 141.701 94.8798C141.406 96.8837 140.617 98.7819 139.406 100.402C138.195 102.022 136.6 103.313 134.766 104.158C132.932 105.002 130.917 105.373 128.903 105.238C131.233 105.551 133.38 106.65 135.657 107.235C137.934 107.82 140.621 107.781 142.313 106.143C144.104 104.41 144.14 101.593 144.053 99.0983C143.924 95.3895 143.796 91.6807 143.667 87.9719C143.601 86.0805 143.545 84.1285 144.225 82.3631C144.904 80.5977 146.519 79.0518 148.404 79.0679C149.833 79.0801 151.098 79.949 152.243 80.8059C153.389 81.6628 154.602 82.5771 156.025 82.7045C157.448 82.832 159.073 81.7747 158.967 80.3443L159.362 80.3498Z" fill="#2F2E41"/>
<path d="M169.804 96.9294C172.202 92.5255 170.59 87.0037 166.203 84.5963C161.817 82.1889 156.316 83.8074 153.918 88.2114C151.52 92.6153 153.132 98.137 157.519 100.544C161.906 102.952 167.406 101.333 169.804 96.9294Z" fill="#FFB7B7"/>
<path d="M174.593 91.8833H161.521L161.387 89.9993L160.717 91.8833H158.704L158.439 88.1493L157.11 91.8833H153.216V91.6983C153.219 89.0987 154.249 86.6065 156.08 84.7683C157.911 82.9301 160.393 81.8961 162.983 81.8932H164.826C167.415 81.8961 169.898 82.9301 171.729 84.7683C173.56 86.6065 174.59 89.0987 174.593 91.6983V91.8833Z" fill="#2F2E41"/>
<path d="M155.191 98.6553L150.417 93.8582L149.612 83.239H160.149L159.888 83.5005C156.258 87.1393 152.34 92.4792 155.191 98.6553Z" fill="#2F2E41"/>
<path d="M218.051 259H63.4059C63.2982 259 63.195 258.957 63.1189 258.881C63.0428 258.804 63 258.701 63 258.593C63 258.484 63.0428 258.381 63.1189 258.304C63.195 258.228 63.2982 258.185 63.4059 258.185H218.051C218.158 258.185 218.262 258.228 218.338 258.304C218.414 258.381 218.457 258.484 218.457 258.593C218.457 258.701 218.414 258.804 218.338 258.881C218.262 258.957 218.158 259 218.051 259Z" fill="#CBCBCB"/>
</g>
<defs>
<clipPath id="clip0_296_531">
<rect width="380" height="246" fill="white" transform="translate(63 13)"/>
</clipPath>
</defs>
</svg>
