<svg width="113" height="113" viewBox="0 0 113 113" fill="none" xmlns="http://www.w3.org/2000/svg">
<path d="M97.0386 3.21991C93.6814 3.20181 90.4545 4.51568 88.0665 6.87365C85.6776 9.23253 84.3223 12.442 84.2974 15.7984C84.2974 21.9256 93.3548 34.5505 95.1729 37.0179H95.1738C95.6101 37.6102 96.3023 37.9602 97.0386 37.9602C97.7748 37.9602 98.4663 37.6102 98.9033 37.0179C100.722 34.5505 109.779 21.9609 109.779 15.7984C109.755 12.4422 108.4 9.23253 106.011 6.87365C103.622 4.51566 100.395 3.20181 97.0386 3.21991ZM97.0386 31.6443C93.3435 26.2697 88.9312 18.9037 88.9312 15.7993H88.9304C88.9304 12.9026 90.4762 10.2266 92.9849 8.77832C95.4928 7.32995 98.5835 7.32995 101.092 8.77832C103.601 10.2267 105.146 12.9028 105.146 15.7993C105.146 18.834 100.734 26.2587 97.0386 31.6443Z" fill="#1E66FF"/>
<path d="M41.3618 48.2764H41.617C44.7905 47.929 48.3811 47.6626 52.2962 47.4661V47.4652C53.5756 47.4014 54.561 46.3125 54.4963 45.033C54.4325 43.7536 53.3437 42.7682 52.0642 42.832C48.0571 43.0407 44.3731 43.3183 41.1186 43.6657V43.6666C39.8392 43.7338 38.8564 44.8252 38.9237 46.1047C38.9909 47.3841 40.0824 48.3669 41.3618 48.2996L41.3618 48.2764Z" fill="#1E66FF"/>
<path d="M40.7595 74.2772C43.5743 74.5901 47.1065 74.7401 51.7748 74.9376H51.867C53.1464 74.9634 54.2043 73.947 54.2292 72.6676C54.2551 71.3882 53.2386 70.3304 51.9593 70.3046C47.5349 70.1304 43.933 69.9683 41.2689 69.6675C39.9895 69.5269 38.8376 70.4503 38.6972 71.7297C38.5567 73.009 39.4801 74.16 40.7594 74.3004L40.7595 74.2772Z" fill="#1E66FF"/>
<path d="M83.684 78.2061C87.0023 78.9363 90.1974 80.1415 93.1707 81.7848C94.2527 82.2745 95.5303 81.865 96.127 80.8382C96.7245 79.8114 96.4477 78.4991 95.4874 77.8C92.1276 75.9162 88.5103 74.5342 84.7497 73.6997C83.5057 73.3799 82.2383 74.1299 81.9185 75.374C81.5987 76.618 82.3479 77.8862 83.5919 78.206L83.684 78.2061Z" fill="#1E66FF"/>
<path d="M31.8762 66.1953C28.1121 64.4693 25.1008 62.9874 23.4093 61.1449C23.0085 60.6466 22.4196 60.3363 21.7825 60.2871C21.1454 60.238 20.5161 60.4544 20.0436 60.8854C19.5712 61.3156 19.2979 61.9226 19.2884 62.5623C19.278 63.2011 19.5332 63.8158 19.9927 64.2607C22.3092 66.7513 25.6913 68.4531 29.9425 70.3997H29.9416C30.2416 70.5446 30.5701 70.6196 30.9029 70.6196C31.9961 70.6256 32.9435 69.8669 33.1781 68.8005C33.4126 67.7332 32.8703 66.6478 31.8763 66.1951L31.8762 66.1953Z" fill="#1E66FF"/>
<path d="M30.1148 45.4607C24.1499 46.9082 20.71 48.8428 19.3081 51.4956C19.0038 52.0301 18.9236 52.6638 19.0865 53.2569C19.2495 53.8501 19.6417 54.3536 20.1771 54.657C20.5297 54.8579 20.9298 54.9614 21.335 54.9588C22.166 54.9622 22.9351 54.52 23.3506 53.8001V53.6958C23.6868 53.0708 25.111 51.3793 31.1692 49.9663H31.1684C31.7986 49.8551 32.3538 49.4879 32.7038 48.9534C33.0538 48.418 33.1668 47.7619 33.0159 47.1403C32.865 46.5187 32.465 45.9868 31.9089 45.6713C31.3529 45.3558 30.6908 45.2833 30.0804 45.473L30.1148 45.4607Z" fill="#1E66FF"/>
<path d="M30.6817 104.196C30.6817 104.81 30.9257 105.4 31.3602 105.835C31.7947 106.269 32.3844 106.513 32.9983 106.513H40.2375H43.8747C44.4885 106.513 45.0782 106.269 45.5128 105.835C45.9464 105.4 46.1912 104.81 46.1912 104.196C46.1912 103.582 45.9464 102.993 45.5128 102.558C45.0782 102.124 44.4886 101.88 43.8747 101.88H33.068C32.4412 101.861 31.8343 102.096 31.3843 102.533C30.9351 102.97 30.6817 103.57 30.6817 104.196Z" fill="#1E66FF"/>
<path d="M74.0345 102.83C74.181 103.996 75.1768 104.866 76.351 104.857H76.6406C80.3149 104.424 83.9644 103.802 87.5749 102.992C88.8216 102.702 89.5975 101.454 89.3061 100.207C89.0147 98.9591 87.768 98.184 86.5206 98.4754C83.0798 99.2521 79.5996 99.8479 76.0968 100.259C75.4804 100.323 74.9157 100.631 74.5286 101.114C74.1406 101.597 73.9629 102.215 74.0345 102.83Z" fill="#1E66FF"/>
<path d="M95.9614 95.0233C95.4277 95.3397 95.0432 95.8569 94.8932 96.4587C94.7441 97.0613 94.8424 97.6984 95.1665 98.2278C95.4907 98.7562 96.014 99.133 96.6183 99.2735C97.2227 99.414 97.8581 99.3054 98.3822 98.9726C101.706 96.9337 103.467 94.3396 103.618 91.4325V90.6678V90.6687C103.621 89.5488 103.493 88.4332 103.236 87.3445C102.935 86.1004 101.683 85.3348 100.438 85.6357C99.1943 85.9366 98.4297 87.1893 98.7297 88.4334C98.9047 89.1653 98.9901 89.9162 98.9849 90.6689V91.2129C98.9616 91.7112 98.8918 93.2285 95.9614 95.0235L95.9614 95.0233Z" fill="#1E66FF"/>
<path d="M52.377 104.128C52.4201 105.375 53.4452 106.364 54.6935 106.363H54.7634C58.6206 106.248 62.2922 106.073 65.6855 105.841C66.9641 105.755 67.9314 104.648 67.8451 103.369C67.7589 102.09 66.652 101.122 65.3726 101.208C62.0371 101.428 58.4231 101.602 54.6237 101.73C54.0073 101.748 53.4236 102.011 53.002 102.461C52.5796 102.911 52.3546 103.511 52.377 104.128Z" fill="#1E66FF"/>
<path d="M73.8736 42.4258H62.9625C61.6831 42.4258 60.646 43.4629 60.646 44.7423C60.646 46.0217 61.6831 47.0588 62.9625 47.0588C66.7266 47.0588 70.3872 46.9889 73.7571 47.0588H73.7579C75.0373 47.0588 76.0744 46.0217 76.0744 44.7423C76.0744 43.4629 75.0373 42.4258 73.7579 42.4258H73.8736Z" fill="#1E66FF"/>
<path d="M62.58 75.4489C66.6337 75.6921 70.1201 75.9929 73.2705 76.3757H73.5489C74.8283 76.4525 75.9274 75.4774 76.0042 74.198C76.081 72.9186 75.1059 71.8195 73.8265 71.7427C70.5833 71.3487 67.0046 71.0357 62.8697 70.7926C61.5903 70.7133 60.4885 71.6849 60.4084 72.9643C60.3283 74.2437 61.3007 75.3463 62.5801 75.4256L62.58 75.4489Z" fill="#1E66FF"/>
<path d="M17.0138 101.672C16.644 99.4956 15.2637 97.6248 13.293 96.6307C11.323 95.6367 8.99788 95.6376 7.02788 96.6324C5.05793 97.6282 3.67849 99.4998 3.31036 101.676C2.94222 103.852 3.62934 106.073 5.16133 107.661C6.69418 109.249 8.89011 110.015 11.0773 109.725C13.2645 109.434 15.1843 108.121 16.2492 106.188C16.4742 106.263 16.7079 106.301 16.9441 106.305H22.0867C23.3661 106.305 24.4032 105.268 24.4032 103.988C24.4032 102.709 23.3661 101.672 22.0867 101.672H17.0141L17.0138 101.672ZM10.1685 105.146C9.23136 105.146 8.38649 104.582 8.02784 103.716C7.67006 102.851 7.86749 101.854 8.53045 101.191C9.19256 100.529 10.1892 100.331 11.0549 100.69C11.9205 101.048 12.4851 101.893 12.4851 102.829C12.4851 103.444 12.2411 104.033 11.8066 104.467C11.3721 104.902 10.7832 105.146 10.1685 105.146Z" fill="#1E66FF"/>
<path d="M97.0386 39.1262C95.7592 39.115 94.5014 39.4573 93.4039 40.116C92.3055 40.7738 91.4115 41.7221 90.8183 42.8558C90.5485 42.7506 90.2631 42.692 89.9734 42.6825C88.9311 42.6825 87.4828 42.6825 85.7112 42.6127H84.7844C83.505 42.5868 82.4472 43.6032 82.4214 44.8826C82.3955 46.162 83.412 47.2198 84.6913 47.2457H85.606C87.413 47.2457 88.8839 47.3155 89.9261 47.3155H90.2399C90.5554 49.0604 91.527 50.6183 92.9547 51.6708C94.3833 52.7226 96.1594 53.189 97.9197 52.9744C99.6801 52.7597 101.291 51.8795 102.424 50.5146C103.557 49.1507 104.126 47.404 104.013 45.6342C103.9 43.8644 103.116 42.2047 101.819 40.9944C100.522 39.7848 98.812 39.1168 97.0386 39.1262ZM97.0386 47.906C96.2213 47.8147 95.5342 47.2517 95.2842 46.4689C95.0342 45.6861 95.267 44.8291 95.8799 44.2808C96.492 43.7325 97.3697 43.5954 98.1205 43.9308C98.8705 44.2653 99.3542 45.011 99.3551 45.8326C99.2801 47.0413 98.2482 47.9655 97.0386 47.906Z" fill="#1E66FF"/>
</svg>
