<svg width="132" height="92" viewBox="0 0 132 92" fill="none" xmlns="http://www.w3.org/2000/svg">
<mask id="path-1-inside-1_319_1067" fill="white">
<path d="M66.3411 47.1187C53.3492 47.1187 42.7817 36.55 42.7817 23.5594C42.7817 10.5687 53.3505 0 66.3411 0C79.3317 0 89.9005 10.5687 89.9005 23.5594C89.9005 36.5488 79.333 47.1187 66.3411 47.1187ZM66.3411 1.53899C54.1995 1.53899 44.3223 11.4174 44.3223 23.5578C44.3223 35.6983 54.2007 45.5767 66.3411 45.5767C78.4815 45.5767 88.36 35.6983 88.36 23.5578C88.36 11.4174 78.4825 1.53899 66.3411 1.53899Z"/>
</mask>
<path d="M66.3411 47.1187C53.3492 47.1187 42.7817 36.55 42.7817 23.5594C42.7817 10.5687 53.3505 0 66.3411 0C79.3317 0 89.9005 10.5687 89.9005 23.5594C89.9005 36.5488 79.333 47.1187 66.3411 47.1187ZM66.3411 1.53899C54.1995 1.53899 44.3223 11.4174 44.3223 23.5578C44.3223 35.6983 54.2007 45.5767 66.3411 45.5767C78.4815 45.5767 88.36 35.6983 88.36 23.5578C88.36 11.4174 78.4825 1.53899 66.3411 1.53899Z" fill="#1E66FF"/>
<path d="M66.3411 47.1187V42.1187C56.1108 42.1187 47.7817 33.7888 47.7817 23.5594H42.7817H37.7817C37.7817 39.3113 50.5877 52.1187 66.3411 52.1187V47.1187ZM42.7817 23.5594H47.7817C47.7817 13.3302 56.1119 5 66.3411 5V0V-5C50.589 -5 37.7817 7.80731 37.7817 23.5594H42.7817ZM66.3411 0V5C76.5703 5 84.9005 13.3302 84.9005 23.5594H89.9005H94.9005C94.9005 7.80731 82.0932 -5 66.3411 -5V0ZM89.9005 23.5594H84.9005C84.9005 33.7877 76.5712 42.1187 66.3411 42.1187V47.1187V52.1187C82.0947 52.1187 94.9005 39.3099 94.9005 23.5594H89.9005ZM66.3411 1.53899V-3.46101C51.4378 -3.46101 39.3223 8.65617 39.3223 23.5578H44.3223H49.3223C49.3223 14.1787 56.9611 6.53899 66.3411 6.53899V1.53899ZM44.3223 23.5578H39.3223C39.3223 38.4597 51.4393 50.5767 66.3411 50.5767V45.5767V40.5767C56.9621 40.5767 49.3223 32.9368 49.3223 23.5578H44.3223ZM66.3411 45.5767V50.5767C81.243 50.5767 93.36 38.4597 93.36 23.5578H88.36H83.36C83.36 32.9368 75.7201 40.5767 66.3411 40.5767V45.5767ZM88.36 23.5578H93.36C93.36 8.65612 81.244 -3.46101 66.3411 -3.46101V1.53899V6.53899C75.7209 6.53899 83.36 14.1787 83.36 23.5578H88.36Z" fill="#1E66FF" mask="url(#path-1-inside-1_319_1067)"/>
<mask id="path-3-inside-2_319_1067" fill="white">
<path d="M104.871 91.6468C104.446 91.6468 104.101 91.3017 104.101 90.8766C104.101 70.0543 87.1607 53.1141 66.3382 53.1141C45.5171 53.1141 28.5757 70.054 28.5757 90.8766C28.5757 91.3017 28.2306 91.6468 27.8054 91.6468C27.3803 91.6468 27.0352 91.3017 27.0352 90.8766C27.0352 69.205 44.6654 51.5732 66.3354 51.5732C88.0057 51.5732 105.636 69.2035 105.636 90.8766C105.638 91.3029 105.293 91.6468 104.868 91.6468H104.871Z"/>
</mask>
<path d="M104.871 91.6468C104.446 91.6468 104.101 91.3017 104.101 90.8766C104.101 70.0543 87.1607 53.1141 66.3382 53.1141C45.5171 53.1141 28.5757 70.054 28.5757 90.8766C28.5757 91.3017 28.2306 91.6468 27.8054 91.6468C27.3803 91.6468 27.0352 91.3017 27.0352 90.8766C27.0352 69.205 44.6654 51.5732 66.3354 51.5732C88.0057 51.5732 105.636 69.2035 105.636 90.8766C105.638 91.3029 105.293 91.6468 104.868 91.6468H104.871Z" fill="#1E66FF"/>
<path d="M105.636 90.8766H100.636V90.8906L100.636 90.9046L105.636 90.8766ZM104.871 91.6468V86.6468C107.207 86.6468 109.101 88.5403 109.101 90.8766H104.101H99.1007C99.1007 94.0631 101.684 96.6468 104.871 96.6468V91.6468ZM104.101 90.8766H109.101C109.101 67.2929 89.9222 48.1141 66.3382 48.1141V53.1141V58.1141C84.3993 58.1141 99.1007 72.8157 99.1007 90.8766H104.101ZM66.3382 53.1141V48.1141C42.7558 48.1141 23.5757 67.2924 23.5757 90.8766H28.5757H33.5757C33.5757 72.8156 48.2784 58.1141 66.3382 58.1141V53.1141ZM28.5757 90.8766H23.5757C23.5757 88.5404 25.469 86.6468 27.8054 86.6468V91.6468V96.6468C30.9921 96.6468 33.5757 94.063 33.5757 90.8766H28.5757ZM27.8054 91.6468V86.6468C30.1418 86.6468 32.0352 88.5404 32.0352 90.8766H27.0352H22.0352C22.0352 94.063 24.6188 96.6468 27.8054 96.6468V91.6468ZM27.0352 90.8766H32.0352C32.0352 71.9661 47.4272 56.5732 66.3354 56.5732V51.5732V46.5732C41.9036 46.5732 22.0352 66.444 22.0352 90.8766H27.0352ZM66.3354 51.5732V56.5732C85.244 56.5732 100.636 71.9646 100.636 90.8766H105.636H110.636C110.636 66.4423 90.7675 46.5732 66.3354 46.5732V51.5732ZM105.636 90.8766L100.636 90.9046C100.622 88.5372 102.542 86.6468 104.868 86.6468V91.6468V96.6468C108.044 96.6468 110.654 94.0686 110.636 90.8485L105.636 90.8766ZM104.868 91.6468V96.6468H104.871V91.6468V86.6468H104.868V91.6468Z" fill="#1E66FF" mask="url(#path-3-inside-2_319_1067)"/>
<mask id="path-5-inside-3_319_1067" fill="white">
<path d="M107.408 38.9866C99.2542 38.9866 92.6191 32.3528 92.6191 24.1974C92.6191 16.042 99.2542 9.4082 107.408 9.4082C115.562 9.4082 122.198 16.042 122.198 24.1974C122.198 32.3528 115.562 38.9866 107.408 38.9866ZM107.408 10.9499C100.103 10.9499 94.1597 16.8925 94.1597 24.1986C94.1597 31.5059 100.102 37.4473 107.408 37.4473C114.716 37.4473 120.657 31.5047 120.657 24.1986C120.657 16.8913 114.713 10.9499 107.408 10.9499Z"/>
</mask>
<path d="M107.408 38.9866C99.2542 38.9866 92.6191 32.3528 92.6191 24.1974C92.6191 16.042 99.2542 9.4082 107.408 9.4082C115.562 9.4082 122.198 16.042 122.198 24.1974C122.198 32.3528 115.562 38.9866 107.408 38.9866ZM107.408 10.9499C100.103 10.9499 94.1597 16.8925 94.1597 24.1986C94.1597 31.5059 100.102 37.4473 107.408 37.4473C114.716 37.4473 120.657 31.5047 120.657 24.1986C120.657 16.8913 114.713 10.9499 107.408 10.9499Z" fill="#1E66FF"/>
<path d="M107.408 38.9866V33.9866C102.015 33.9866 97.6191 29.5911 97.6191 24.1974H92.6191H87.6191C87.6191 35.1145 96.493 43.9866 107.408 43.9866V38.9866ZM92.6191 24.1974H97.6191C97.6191 18.8037 102.015 14.4082 107.408 14.4082V9.4082V4.4082C96.493 4.4082 87.6191 13.2803 87.6191 24.1974H92.6191ZM107.408 9.4082V14.4082C112.801 14.4082 117.198 18.8037 117.198 24.1974H122.198H127.198C127.198 13.2803 118.324 4.4082 107.408 4.4082V9.4082ZM122.198 24.1974H117.198C117.198 29.5911 112.801 33.9866 107.408 33.9866V38.9866V43.9866C118.324 43.9866 127.198 35.1145 127.198 24.1974H122.198ZM107.408 10.9499V5.94995C97.342 5.94995 89.1597 14.1309 89.1597 24.1986H94.1597H99.1597C99.1597 19.6542 102.864 15.9499 107.408 15.9499V10.9499ZM94.1597 24.1986H89.1597C89.1597 34.2677 97.3411 42.4473 107.408 42.4473V37.4473V32.4473C102.863 32.4473 99.1597 28.7442 99.1597 24.1986H94.1597ZM107.408 37.4473V42.4473C117.477 42.4473 125.657 34.2658 125.657 24.1986H120.657H115.657C115.657 28.7436 111.954 32.4473 107.408 32.4473V37.4473ZM120.657 24.1986H125.657C125.657 14.1294 117.474 5.94995 107.408 5.94995V10.9499V15.9499C111.953 15.9499 115.657 19.6533 115.657 24.1986H120.657Z" fill="#1E66FF" mask="url(#path-5-inside-3_319_1067)"/>
<mask id="path-7-inside-4_319_1067" fill="white">
<path d="M131.111 66.1408C130.686 66.1408 130.341 65.7957 130.341 65.3706C130.341 52.7263 120.054 42.4391 107.409 42.4391C98.0072 42.4391 89.6586 48.0736 86.1367 56.7911C85.9767 57.1853 85.5265 57.3739 85.1336 57.2163C84.7395 57.0563 84.5484 56.6084 84.7085 56.2132C88.463 46.9101 97.3756 40.8984 107.408 40.8984C120.903 40.8984 131.88 51.8756 131.88 65.3704C131.88 65.7955 131.536 66.1408 131.111 66.1408Z"/>
</mask>
<path d="M131.111 66.1408C130.686 66.1408 130.341 65.7957 130.341 65.3706C130.341 52.7263 120.054 42.4391 107.409 42.4391C98.0072 42.4391 89.6586 48.0736 86.1367 56.7911C85.9767 57.1853 85.5265 57.3739 85.1336 57.2163C84.7395 57.0563 84.5484 56.6084 84.7085 56.2132C88.463 46.9101 97.3756 40.8984 107.408 40.8984C120.903 40.8984 131.88 51.8756 131.88 65.3704C131.88 65.7955 131.536 66.1408 131.111 66.1408Z" fill="#1E66FF"/>
<path d="M86.1367 56.7911L90.7694 58.6722L90.7727 58.6641L86.1367 56.7911ZM85.1336 57.2163L83.2525 61.8489L83.2621 61.8528L83.2718 61.8567L85.1336 57.2163ZM84.7085 56.2132L89.343 58.0897L89.3451 58.0844L84.7085 56.2132ZM131.111 66.1408V61.1408C133.447 61.1408 135.341 63.0343 135.341 65.3706H130.341H125.341C125.341 68.557 127.924 71.1408 131.111 71.1408V66.1408ZM130.341 65.3706H135.341C135.341 49.9649 122.815 37.4391 107.409 37.4391V42.4391V47.4391C117.292 47.4391 125.341 55.4877 125.341 65.3706H130.341ZM107.409 42.4391V37.4391C95.9678 37.4391 85.7857 44.3118 81.5008 54.9182L86.1367 56.7911L90.7727 58.6641C93.5315 51.8353 100.047 47.4391 107.409 47.4391V42.4391ZM86.1367 56.7911L81.5041 54.9101C82.3875 52.7343 84.8518 51.7158 86.9954 52.5758L85.1336 57.2163L83.2718 61.8567C86.2011 63.032 89.5659 61.6362 90.7694 58.6722L86.1367 56.7911ZM85.1336 57.2163L87.0147 52.5836C89.1649 53.4567 90.2236 55.9147 89.343 58.0897L84.7085 56.2132L80.074 54.3366C78.8732 57.3021 80.3141 60.6558 83.2525 61.8489L85.1336 57.2163ZM84.7085 56.2132L89.3451 58.0844C92.3362 50.6729 99.4136 45.8984 107.408 45.8984V40.8984V35.8984C95.3376 35.8984 84.5898 43.1473 80.0718 54.3419L84.7085 56.2132ZM107.408 40.8984V45.8984C118.141 45.8984 126.88 54.637 126.88 65.3704H131.88H136.88C136.88 49.1142 123.664 35.8984 107.408 35.8984V40.8984ZM131.88 65.3704H126.88C126.88 63.0453 128.763 61.1408 131.111 61.1408V66.1408V71.1408C134.309 71.1408 136.88 68.5457 136.88 65.3704H131.88Z" fill="#1E66FF" mask="url(#path-7-inside-4_319_1067)"/>
<mask id="path-9-inside-5_319_1067" fill="white">
<path d="M24.4699 38.9866C16.3157 38.9866 9.68066 32.3528 9.68066 24.1974C9.68066 16.042 16.3145 9.4082 24.4699 9.4082C32.6252 9.4082 39.259 16.042 39.259 24.1974C39.2602 32.3528 32.624 38.9866 24.4699 38.9866ZM24.4699 10.9499C17.1647 10.9499 11.2212 16.8925 11.2212 24.1986C11.2212 31.5059 17.1638 37.4473 24.4699 37.4473C31.7772 37.4473 37.7185 31.5047 37.7185 24.1986C37.7197 16.8913 31.7759 10.9499 24.4699 10.9499Z"/>
</mask>
<path d="M24.4699 38.9866C16.3157 38.9866 9.68066 32.3528 9.68066 24.1974C9.68066 16.042 16.3145 9.4082 24.4699 9.4082C32.6252 9.4082 39.259 16.042 39.259 24.1974C39.2602 32.3528 32.624 38.9866 24.4699 38.9866ZM24.4699 10.9499C17.1647 10.9499 11.2212 16.8925 11.2212 24.1986C11.2212 31.5059 17.1638 37.4473 24.4699 37.4473C31.7772 37.4473 37.7185 31.5047 37.7185 24.1986C37.7197 16.8913 31.7759 10.9499 24.4699 10.9499Z" fill="#1E66FF"/>
<path d="M39.259 24.1974H34.259V24.1981L39.259 24.1974ZM37.7185 24.1986L32.7185 24.1978V24.1986H37.7185ZM24.4699 38.9866V33.9866C19.0769 33.9866 14.6807 29.5911 14.6807 24.1974H9.68066H4.68066C4.68066 35.1145 13.5545 43.9866 24.4699 43.9866V38.9866ZM9.68066 24.1974H14.6807C14.6807 18.8034 19.0759 14.4082 24.4699 14.4082V9.4082V4.4082C13.5531 4.4082 4.68066 13.2806 4.68066 24.1974H9.68066ZM24.4699 9.4082V14.4082C29.8638 14.4082 34.259 18.8034 34.259 24.1974H39.259H44.259C44.259 13.2806 35.3867 4.4082 24.4699 4.4082V9.4082ZM39.259 24.1974L34.259 24.1981C34.2598 29.5906 29.8635 33.9866 24.4699 33.9866V38.9866V43.9866C35.3845 43.9866 44.2606 35.115 44.259 24.1967L39.259 24.1974ZM24.4699 10.9499V5.94995C14.4035 5.94995 6.22119 14.1309 6.22119 24.1986H11.2212H16.2212C16.2212 19.6542 19.9259 15.9499 24.4699 15.9499V10.9499ZM11.2212 24.1986H6.22119C6.22119 34.2676 14.4026 42.4473 24.4699 42.4473V37.4473V32.4473C19.9249 32.4473 16.2212 28.7442 16.2212 24.1986H11.2212ZM24.4699 37.4473V42.4473C34.5389 42.4473 42.7185 34.2658 42.7185 24.1986H37.7185H32.7185C32.7185 28.7436 29.0154 32.4473 24.4699 32.4473V37.4473ZM37.7185 24.1986L42.7185 24.1994C42.7202 14.129 34.5363 5.94995 24.4699 5.94995V10.9499V15.9499C29.0156 15.9499 32.7193 19.6536 32.7185 24.1978L37.7185 24.1986Z" fill="#1E66FF" mask="url(#path-9-inside-5_319_1067)"/>
<mask id="path-11-inside-6_319_1067" fill="white">
<path d="M0.770261 66.1406C0.345127 66.1406 0 65.7955 0 65.3704C0 51.8756 10.9772 40.8984 24.4719 40.8984C34.901 40.8984 44.1979 47.5167 47.6051 57.3679C47.7437 57.7703 47.5311 58.2074 47.1286 58.3471C46.7238 58.4821 46.2879 58.2719 46.1494 57.8694C42.9583 48.6394 34.2465 42.4367 24.472 42.4367C11.8278 42.4367 1.54061 52.7236 1.54061 65.3681C1.53942 65.7956 1.19659 66.1406 0.770261 66.1406Z"/>
</mask>
<path d="M0.770261 66.1406C0.345127 66.1406 0 65.7955 0 65.3704C0 51.8756 10.9772 40.8984 24.4719 40.8984C34.901 40.8984 44.1979 47.5167 47.6051 57.3679C47.7437 57.7703 47.5311 58.2074 47.1286 58.3471C46.7238 58.4821 46.2879 58.2719 46.1494 57.8694C42.9583 48.6394 34.2465 42.4367 24.472 42.4367C11.8278 42.4367 1.54061 52.7236 1.54061 65.3681C1.53942 65.7956 1.19659 66.1406 0.770261 66.1406Z" fill="#1E66FF"/>
<path d="M47.6051 57.3679L52.3329 55.7405L52.3305 55.7335L47.6051 57.3679ZM47.1286 58.3471L48.7098 63.0905L48.7392 63.0807L48.7684 63.0706L47.1286 58.3471ZM46.1494 57.8694L50.8772 56.2421L50.8749 56.2357L46.1494 57.8694ZM1.54061 65.3681L6.54061 65.3821V65.3681H1.54061ZM0.770261 66.1406V61.1406C3.10655 61.1406 5 63.0341 5 65.3704H0H-5C-5 68.5569 -2.4163 71.1406 0.770261 71.1406V66.1406ZM0 65.3704H5C5 54.637 13.7386 45.8984 24.4719 45.8984V40.8984V35.8984C8.21575 35.8984 -5 49.1142 -5 65.3704H0ZM24.4719 40.8984V45.8984C32.7713 45.8984 40.1699 51.1671 42.8798 59.0022L47.6051 57.3679L52.3305 55.7335C48.2259 43.8662 37.0306 35.8984 24.4719 35.8984V40.8984ZM47.6051 57.3679L42.8774 58.9952C42.1181 56.7894 43.2895 54.3872 45.4889 53.6236L47.1286 58.3471L48.7684 63.0706C51.7726 62.0276 53.3692 58.7513 52.3329 55.7405L47.6051 57.3679ZM47.1286 58.3471L45.5475 53.6037C47.6878 52.8902 50.1039 53.9955 50.8772 56.2421L46.1494 57.8694L41.4216 59.4967C42.4719 62.5482 45.7598 64.0739 48.7098 63.0905L47.1286 58.3471ZM46.1494 57.8694L50.8749 56.2357C46.9866 44.9889 36.376 37.4367 24.472 37.4367V42.4367V47.4367C32.117 47.4367 38.93 52.29 41.4238 59.5032L46.1494 57.8694ZM24.472 42.4367V37.4367C9.06639 37.4367 -3.45939 49.9621 -3.45939 65.3681H1.54061H6.54061C6.54061 55.485 14.5891 47.4367 24.472 47.4367V42.4367ZM1.54061 65.3681L-3.45937 65.3542C-3.45295 63.0572 -1.5908 61.1406 0.770261 61.1406V66.1406V71.1406C3.98397 71.1406 6.53179 68.534 6.54059 65.3821L1.54061 65.3681Z" fill="#1E66FF" mask="url(#path-11-inside-6_319_1067)"/>
</svg>
