<svg width="100" height="64" viewBox="0 0 100 64" fill="none" xmlns="http://www.w3.org/2000/svg">
<path d="M99.7812 26.1449C99.2806 23.9808 97.967 22.1401 96.0816 20.9635C94.2116 19.7961 92.0028 19.4215 89.856 19.9048C89.8423 19.9075 89.8286 19.9103 89.814 19.913L75.904 23.0537L33.0423 0.208469C32.665 0.0065827 32.2265 -0.0509682 31.8118 0.0458706L21.1913 2.50326C20.2403 2.72342 19.6474 3.67347 19.8685 4.62443C20.0887 5.57631 21.0396 6.16553 21.9897 5.94719L31.9643 3.63874L74.8237 26.4793C75.1982 26.6785 75.6321 26.7369 76.0441 26.6447L90.5453 23.3706C90.5645 23.367 90.5827 23.3624 90.6019 23.3588C91.8461 23.0692 93.1269 23.2848 94.2113 23.9608C95.2957 24.6386 96.0502 25.6964 96.3389 26.9406C96.6285 28.193 96.4147 29.4911 95.736 30.5947C95.06 31.6954 94.0076 32.4573 92.7716 32.7423C91.8206 32.9616 91.2268 33.9107 91.447 34.8617C91.6352 35.6793 92.3623 36.2319 93.1671 36.2319C93.2987 36.2319 93.433 36.2164 93.5663 36.1863C95.7304 35.6866 97.5712 34.3574 98.7468 32.4455C99.9143 30.5454 100.282 28.3082 99.7818 26.145L99.7812 26.1449Z" fill="#1E66FF"/>
<path d="M31.6276 36.241C31.8824 36.3726 32.1629 36.4411 32.4452 36.4411C32.5749 36.4411 32.7055 36.4274 32.8343 36.3972L49.0574 32.7369C49.6877 32.5943 50.1892 32.1202 50.3674 31.5C50.5455 30.8788 50.3701 30.211 49.9115 29.757L28.3754 8.46197C27.683 7.77592 26.5621 7.78139 25.8759 8.47567C25.189 9.16995 25.1963 10.289 25.8896 10.9752L45.1274 29.9982L32.6854 32.8055L14.3922 23.2656C14.0213 23.072 13.5938 23.0181 13.1854 23.1085L1.37832 25.774C0.426442 25.9896 -0.170999 26.9342 0.0436839 27.887C0.259274 28.8398 1.20933 29.4363 2.15665 29.2216L13.3344 26.6995L31.6276 36.241Z" fill="#1E66FF"/>
<path d="M24.4761 51.7357C24.931 51.7357 25.386 51.5612 25.7313 51.2122C26.4182 50.518 26.4137 49.3989 25.7203 48.712L8.4933 31.6375C7.79811 30.9496 6.67998 30.9551 5.99311 31.6485C5.30615 32.3427 5.31071 33.4618 6.00408 34.1486L23.232 51.2232C23.5764 51.5648 24.0267 51.7357 24.4761 51.7357Z" fill="#1E66FF"/>
<path d="M29.6167 48.8108C29.803 49.632 30.5311 50.1893 31.3396 50.1893C31.4684 50.1893 31.5999 50.1756 31.7306 50.1454L86.6618 37.7462C87.6137 37.5306 88.2111 36.5861 87.9964 35.6332C87.7808 34.6805 86.8308 34.0839 85.8835 34.2986L30.9499 46.6969C29.998 46.9125 29.3997 47.857 29.6153 48.8108L29.6167 48.8108Z" fill="#1E66FF"/>
<path d="M93.1536 60.4355H24.4762C23.4996 60.4355 22.7085 61.2257 22.7085 62.2032C22.7085 63.1797 23.4987 63.9708 24.4762 63.9708H93.1513C94.1278 63.9708 94.9189 63.1807 94.9189 62.2032C94.9189 61.2257 94.1278 60.4355 93.1522 60.4355H93.1536Z" fill="#1E66FF"/>
</svg>
