<svg width="596" height="260" viewBox="0 0 596 260" fill="none" xmlns="http://www.w3.org/2000/svg">
<rect width="595.592" height="258.992" transform="translate(0 0.497803)" fill="#00D1FF" fill-opacity="0.4"/>
<path d="M253.917 238.812L260.029 245.403C260.029 245.403 265.684 245.467 264.578 242.35C264.357 241.675 264.199 240.98 264.108 240.276C263.829 238.063 263.696 235.835 263.71 233.605C263.71 232.144 263.732 231.118 263.732 231.118C263.732 231.118 254.829 227.222 255.739 231.281C255.852 231.788 255.913 232.306 255.921 232.826C255.924 234.33 255.577 235.814 254.905 237.16C254.631 237.742 254.3 238.295 253.917 238.812Z" fill="#FFB9B9"/>
<path d="M239.735 248.738C241.807 250.502 244.456 251.445 247.179 251.388C252.22 251.317 261.638 251.168 263.825 251.077C266.751 250.948 265.78 248.454 265.686 246.735V246.564C265.651 244.842 265.307 241.109 264.724 240.526C264.14 239.943 262.143 243.123 262.143 243.123C262.143 243.123 258.243 244.259 257.17 240.851C256.097 237.444 253.918 237.115 253.918 237.115C252.929 236.687 252.88 239.258 252.88 239.258L244.624 243.509L239.78 244.266C239.625 244.337 239.485 244.41 239.352 244.482C237.161 245.709 238.132 247.352 239.735 248.738Z" fill="#090814"/>
<path d="M230.941 238.812L237.054 245.403C237.054 245.403 242.709 245.467 241.602 242.35C241.381 241.675 241.224 240.98 241.132 240.276C240.854 238.063 240.721 235.835 240.734 233.605C240.734 232.144 240.757 231.118 240.757 231.118C240.757 231.118 231.854 227.222 232.763 231.281C232.877 231.788 232.938 232.306 232.945 232.826C232.949 234.33 232.601 235.814 231.93 237.16C231.655 237.742 231.324 238.295 230.941 238.812Z" fill="#FFB9B9"/>
<path d="M216.759 248.738C218.832 250.502 221.481 251.445 224.203 251.388C229.244 251.317 238.663 251.168 240.85 251.077C243.776 250.948 242.804 248.454 242.711 246.735V246.564C242.675 244.842 242.332 241.109 241.748 240.526C241.165 239.943 239.167 243.123 239.167 243.123C239.167 243.123 235.267 244.259 234.194 240.851C233.121 237.444 230.942 237.115 230.942 237.115C229.953 236.687 229.904 239.258 229.904 239.258L221.649 243.509L216.805 244.266C216.65 244.337 216.509 244.41 216.377 244.482C214.186 245.709 215.156 247.352 216.759 248.738Z" fill="#090814"/>
<path d="M120.174 44.6955C120.174 44.6955 120.352 54.8881 116.781 55.7772C113.211 56.6663 121.924 65.8833 126.593 64.6999C131.263 63.5166 133.063 56.0447 133.063 56.0447C133.063 56.0447 128.835 50.8828 130.441 48.0989C132.048 45.315 120.174 44.6955 120.174 44.6955Z" fill="#A0616A"/>
<path d="M258.748 70.0574C260.593 62.4505 262.156 53.8717 258.677 46.8643C256.264 42.0014 247.335 40.3658 242.217 42.1172C237.098 43.8685 233.397 48.6198 231.769 53.8003C230.14 58.9808 230.33 64.5635 231.04 69.9506C240.454 69.7685 249.868 69.5878 258.748 70.0574Z" fill="#090814"/>
<path d="M59.3976 235.5C59.5392 240.778 60.4245 246.01 62.0273 251.042C62.0629 251.158 62.1023 251.273 62.1407 251.39H71.953C71.9427 251.285 71.932 251.169 71.9217 251.042C71.2675 243.529 75.0052 198.348 79.5154 190.529C79.1206 191.163 58.6368 211.628 59.3976 235.5Z" fill="#E6E6E6"/>
<path d="M60.134 251.042C60.2161 251.158 60.3014 251.275 60.3888 251.39H67.7505C67.6947 251.291 67.63 251.174 67.5551 251.042C66.339 248.849 62.7395 242.295 59.3984 235.5C55.8092 228.198 52.5136 220.619 52.7911 217.876C52.7051 218.494 50.2204 237.354 60.134 251.042Z" fill="#E6E6E6"/>
<path d="M179.458 243.317C179.53 245.999 179.98 248.657 180.794 251.213C180.812 251.272 180.832 251.331 180.852 251.391H185.837C185.832 251.337 185.826 251.278 185.821 251.213C185.489 247.396 187.387 224.442 189.679 220.469C189.478 220.793 179.071 231.189 179.458 243.317Z" fill="#E6E6E6"/>
<path d="M179.832 251.212C179.873 251.271 179.917 251.331 179.961 251.39H183.701C183.673 251.339 183.64 251.28 183.602 251.212C182.984 250.098 181.156 246.768 179.458 243.316C177.635 239.606 175.96 235.756 176.102 234.362C176.058 234.677 174.796 244.259 179.832 251.212Z" fill="#E6E6E6"/>
<path d="M149.943 90.4386L137.253 99.4543L145.149 100.299L156.148 91.003L149.943 90.4386Z" fill="#090814"/>
<path d="M237.333 80.6527L253.172 80.8879L248.56 66.2774L238.099 68.4602C239.764 72.0185 239.41 76.1089 237.333 80.6527Z" fill="#FFB9B9"/>
<path d="M99.5848 243.746H109.713L114.529 214.34H99.583L99.5848 243.746Z" fill="#9F616A"/>
<path d="M95.4961 139.347C95.4961 139.347 92.1884 142.875 97.6638 156.629V232.043H111.65L118.351 194.93L125.457 141.248L95.4961 139.347Z" fill="#F2F2F2"/>
<path d="M77.7736 126.745C76.7251 126.742 75.7189 126.331 74.9686 125.6C74.2183 124.868 73.7829 123.873 73.7548 122.826L72.9219 91.4708L87.1751 64.4615C87.4988 63.8533 87.9723 63.3376 88.551 62.9631C89.1297 62.5886 89.7945 62.3676 90.4825 62.3212L101.345 61.6248L100.407 124.829L78.1254 126.731C78.0082 126.74 77.8909 126.745 77.7736 126.745Z" fill="#1E66FF"/>
<path d="M131.545 150.384L131.35 150.354C108.642 146.895 91.5068 143.579 91.3363 143.546L91.123 143.504L97.0775 129.043C97.0306 127.532 95.7421 85.097 98.2086 72.9052C100.597 61.1027 111.852 59.1686 113.134 58.9865L114.422 54.7242L130.693 63.1813L133.531 72.9367L134.107 99.6741L131.545 150.384Z" fill="#090814"/>
<path d="M109.184 109.906C98.7006 109.906 90.1719 98.5212 90.1719 84.5273C90.1719 70.5334 98.7006 59.1483 109.184 59.1483C119.667 59.1483 128.196 70.5334 128.196 84.5273C128.196 98.5212 119.667 109.906 109.184 109.906ZM109.184 61.633C100.072 61.633 92.6594 71.9035 92.6594 84.5273C92.6594 97.1511 100.072 107.422 109.184 107.422C118.295 107.422 125.708 97.1511 125.708 84.5273C125.708 71.9035 118.295 61.633 109.184 61.633Z" fill="#1E66FF"/>
<path d="M141.345 95.3533C140.612 95.353 139.887 95.5042 139.216 95.7975C138.544 96.0907 137.941 96.5195 137.443 97.057H110.095L100.077 99.1867L101.722 111.858L137.358 104.203C137.948 104.868 138.696 105.376 139.533 105.679C140.369 105.982 141.269 106.071 142.149 105.937C143.029 105.804 143.862 105.452 144.57 104.914C145.279 104.377 145.842 103.67 146.207 102.859C146.573 102.048 146.729 101.159 146.661 100.273C146.594 99.386 146.305 98.5305 145.822 97.784C145.338 97.0376 144.675 96.424 143.893 95.9994C143.111 95.5748 142.235 95.3527 141.345 95.3533Z" fill="#9F616A"/>
<path d="M139.338 52.9283C144.485 47.7869 144.485 39.4509 139.338 34.3095C134.19 29.1681 125.845 29.1681 120.697 34.3095C115.55 39.4509 115.55 47.7869 120.697 52.9283C125.845 58.0697 134.19 58.0697 139.338 52.9283Z" fill="#9F616A"/>
<path d="M117.619 33.0949L116.98 31.8104L120.195 30.2131C120.195 30.2131 123.742 24.4483 130.16 26.0683C136.579 27.6883 139.467 28.6595 139.467 28.6595L142.674 30.2713L141.064 31.8711L143.952 32.8408L142.023 33.7991L144.267 35.088L143.059 41.694C143.059 41.694 141.052 36.6835 137.195 38.5981C133.339 40.5127 126.28 37.6081 126.28 37.6081L120.147 49.4581C120.147 49.4581 118.882 45.3034 116.627 46.4112C116.627 46.412 110.866 37.2478 117.619 33.0949Z" fill="#090814"/>
<path d="M232.149 114.146L231.586 103.592L225.9 98.978L222.606 108.751L204.184 133.294C203.313 133.433 202.501 133.819 201.842 134.405C201.184 134.991 200.708 135.754 200.469 136.602C200.231 137.45 200.241 138.349 200.498 139.192C200.756 140.035 201.249 140.786 201.92 141.358C202.592 141.929 203.413 142.296 204.287 142.416C205.161 142.536 206.051 142.404 206.852 142.034C207.652 141.664 208.33 141.074 208.805 140.331C209.281 139.589 209.533 138.726 209.532 137.845C209.532 137.783 209.526 137.723 209.523 137.661L232.149 114.146Z" fill="#FFB9B9"/>
<path d="M248.127 68.7117C253.447 65.8071 255.402 59.1451 252.494 53.8317C249.586 48.5183 242.916 46.5655 237.597 49.4701C232.277 52.3746 230.322 59.0366 233.23 64.35C236.138 69.6635 242.808 71.6162 248.127 68.7117Z" fill="#FFB9B9"/>
<path d="M256.281 56.8323C256.318 54.9858 255.983 53.1508 255.295 51.4365C254.607 49.7222 253.581 48.1635 252.278 46.8533C250.975 45.5431 249.421 44.508 247.71 43.8096C245.998 43.1113 244.163 42.764 242.314 42.7883C240.466 42.8126 238.641 43.2082 236.948 43.9513C235.255 44.6945 233.729 45.7701 232.461 47.1142C231.193 48.4582 230.209 50.0433 229.567 51.7752C228.924 53.507 228.637 55.3502 228.723 57.195C238.119 57.2152 247.514 57.2351 256.281 56.8323Z" fill="#090814"/>
<path d="M225.235 125.149C225.235 125.149 223.449 151.064 224.418 158.97C225.387 166.875 231.665 233.95 231.665 233.95H242.741L246.269 154.529L253.812 235.91L265.536 234.935L268.587 155.468C268.587 155.468 267.855 125.352 261.902 122.332L225.235 125.149Z" fill="#090814"/>
<path d="M237.724 150.838C231.876 150.836 226.113 149.442 220.912 146.771L220.798 146.713L225.199 117.546L224.914 82.7845C224.907 81.8304 225.089 80.8843 225.451 80.0014C225.814 79.1185 226.348 78.3165 227.024 77.6421C227.7 76.9678 228.503 76.4347 229.388 76.0738C230.272 75.7129 231.219 75.5316 232.174 75.5403L255.789 75.7569C256.834 75.7664 257.867 75.9908 258.822 76.416C259.777 76.8412 260.634 77.4581 261.34 78.2285C262.046 78.9988 262.586 79.906 262.925 80.8936C263.265 81.8813 263.398 82.9282 263.316 83.9693L261.106 111.837L268.414 134.455L267.144 136.142C263.719 140.705 259.278 144.408 254.171 146.959C249.065 149.509 243.435 150.837 237.726 150.837L237.724 150.838Z" fill="#F2F2F2"/>
<path d="M222.54 105.53L225.014 80.3101L225.81 79.1796C226.355 78.4054 227.047 77.7464 227.847 77.2402C228.648 76.734 229.541 76.3908 230.474 76.2301C231.408 76.0694 232.364 76.0945 233.288 76.3039C234.212 76.5133 235.085 76.9029 235.858 77.4503L236.54 77.9334L235.867 103.492L222.54 105.53Z" fill="#F2F2F2"/>
<path d="M323.934 228.744C330.33 226.978 333.061 236.681 326.68 238.503C320.283 240.269 317.553 230.566 323.934 228.744Z" fill="#090814"/>
<path d="M288.466 241.233C294.863 239.468 297.593 249.171 291.212 250.993C284.816 252.757 282.086 243.054 288.466 241.233Z" fill="#090814"/>
<path d="M274.111 138.898L274.21 138.87L290.687 183.552L292.86 182.943L276.264 137.94C276.228 137.247 275.956 136.586 275.493 136.068C275.029 135.551 274.402 135.207 273.716 135.094C265.476 133.793 262.136 141.099 262.136 141.099L262.169 141.148L279.013 186.83L281.185 186.22L264.837 141.882C269.814 136.964 274.111 138.898 274.111 138.898Z" fill="#090814"/>
<path d="M292.996 243.747C290.645 243.726 288.362 242.957 286.479 241.55C284.596 240.143 283.213 238.173 282.529 235.926C279.385 225.645 271.965 201.011 270.98 194.326C269.701 185.622 276.915 183.145 277.073 183.093C277.268 183.028 280.168 182.217 284.181 181.095C291.004 179.188 301.314 176.306 301.693 176.135C303.29 175.581 304.985 175.361 306.672 175.492C308.358 175.622 309.999 176.098 311.493 176.891C313.032 177.7 314.391 178.813 315.486 180.162C316.581 181.512 317.39 183.07 317.864 184.741L328.477 222.456C329.132 224.768 328.949 227.237 327.959 229.427C326.969 231.617 325.237 233.387 323.067 234.426C314.878 238.356 302.868 243.598 293.156 243.746L292.996 243.747Z" fill="#1E66FF"/>
<path d="M272.36 137.353L267.025 106.224L266.43 95.717L257.805 98.5389L265.079 139.299C264.785 140.093 264.716 140.951 264.878 141.781C265.04 142.611 265.427 143.381 265.998 144.006C266.568 144.631 267.3 145.087 268.112 145.325C268.925 145.563 269.787 145.573 270.605 145.354C271.423 145.135 272.165 144.696 272.75 144.084C273.334 143.472 273.739 142.712 273.921 141.886C274.102 141.059 274.052 140.199 273.777 139.4C273.502 138.6 273.012 137.891 272.36 137.351L272.36 137.353Z" fill="#FFB9B9"/>
<path d="M268.483 104.272L255.021 103.541L251.858 78.169L252.166 77.9024C252.924 77.2456 253.805 76.7448 254.757 76.4288C255.709 76.1127 256.715 75.9877 257.716 76.0608C258.717 76.1339 259.693 76.4038 260.589 76.8549C261.485 77.3059 262.284 77.9294 262.938 78.6894L263.56 79.4128L263.57 79.4586L268.483 104.272Z" fill="#F2F2F2"/>
<path d="M323.305 228.204L309.545 181.687L277.189 190.82L276.996 190.137L310.027 180.813L310.127 181.15L323.986 228.003L323.305 228.204Z" fill="#3F3D56"/>
<path d="M78.8011 123.41L77.3359 91.4996L92.3436 62.197L92.9762 62.5204L78.0548 91.6551L79.5118 123.377L78.8011 123.41Z" fill="#3F3D56"/>
<path d="M354.645 252.099H27.3554C27.2611 252.099 27.1707 252.062 27.1041 251.995C27.0374 251.929 27 251.839 27 251.744C27 251.65 27.0374 251.56 27.1041 251.493C27.1707 251.427 27.2611 251.39 27.3554 251.39H354.645C354.739 251.39 354.829 251.427 354.896 251.493C354.963 251.56 355 251.65 355 251.744C355 251.839 354.963 251.929 354.896 251.995C354.829 252.062 354.739 252.099 354.645 252.099Z" fill="#CCCCCC"/>
<path d="M101.896 114.233L98.7693 104.94L98.0127 73.9643L99.3453 69.5693C99.8248 67.9874 100.619 66.5185 101.681 65.2507C102.742 63.9828 104.049 62.942 105.523 62.1907C106.997 61.4395 108.607 60.9931 110.258 60.8785C111.909 60.7638 113.566 60.9832 115.13 61.5235C116.693 62.0638 118.132 62.9139 119.359 64.0228C120.586 65.1317 121.576 66.4767 122.27 67.977C122.964 69.4774 123.348 71.1022 123.398 72.7543C123.449 74.4063 123.164 76.0515 122.563 77.5912L115.42 95.8733L115.783 96.5771L131.258 96.4518L136.755 106.335L101.896 114.233Z" fill="#090814"/>
<path d="M200.476 180.36L200.465 180.363L183.314 183.792L168.56 189.727C168.369 189.804 168.165 189.842 167.959 189.84C167.754 189.838 167.551 189.796 167.361 189.715C167.172 189.635 167.001 189.518 166.857 189.371C166.713 189.224 166.599 189.051 166.522 188.86C166.504 188.816 166.488 188.77 166.474 188.724L155.696 152.674C155.583 152.301 155.614 151.899 155.783 151.547C155.953 151.195 156.248 150.92 156.611 150.776L171.635 144.733L171.646 144.73L188.798 141.301L203.552 135.366C203.743 135.289 203.947 135.251 204.152 135.253C204.358 135.255 204.561 135.297 204.75 135.378C204.939 135.458 205.111 135.575 205.255 135.722C205.399 135.869 205.512 136.042 205.589 136.233C205.607 136.277 205.623 136.323 205.637 136.369L216.416 172.419C216.529 172.792 216.498 173.194 216.328 173.546C216.159 173.898 215.863 174.173 215.5 174.317L200.476 180.36Z" fill="#1E66FF"/>
<path d="M182.071 156.145C178.138 154.759 174.073 153.545 169.989 152.536L169.784 152.485L171.857 159.419L182.42 156.268L182.071 156.145ZM172.02 159.12L170.136 152.82C174.023 153.787 177.891 154.94 181.642 156.25L172.02 159.12ZM202.681 165.519C200.85 164.485 198.993 163.495 197.11 162.548C196.59 162.288 196.069 162.03 195.546 161.776C192.357 160.226 189.119 158.813 185.832 157.537L185.794 157.523L172.478 161.494L176.114 173.655L202.927 165.657L202.681 165.519ZM176.278 173.357L172.779 161.656L185.785 157.776C188.955 159.007 192.088 160.371 195.185 161.867C195.723 162.128 196.259 162.391 196.793 162.658C198.658 163.591 200.499 164.568 202.317 165.589L176.278 173.357ZM202.681 165.519C200.85 164.485 198.993 163.495 197.11 162.548C196.59 162.288 196.069 162.03 195.546 161.776C192.357 160.226 189.119 158.813 185.832 157.537L185.794 157.523L172.478 161.494L176.114 173.655L202.927 165.657L202.681 165.519ZM176.278 173.357L172.779 161.656L185.785 157.776C188.955 159.007 192.088 160.371 195.185 161.867C195.723 162.128 196.259 162.391 196.793 162.658C198.658 163.591 200.499 164.568 202.317 165.589L176.278 173.357ZM182.073 156.145C178.139 154.759 174.074 153.545 169.99 152.536L169.785 152.485L171.858 159.419L182.421 156.268L182.073 156.145ZM172.021 159.12L170.138 152.82C174.024 153.787 177.892 154.94 181.643 156.25L172.021 159.12ZM182.073 156.145C178.139 154.759 174.074 153.545 169.99 152.536L169.785 152.485L171.858 159.419L182.421 156.268L182.073 156.145ZM172.021 159.12L170.138 152.82C174.024 153.787 177.892 154.94 181.643 156.25L172.021 159.12ZM202.683 165.519C200.852 164.485 198.995 163.495 197.111 162.548C196.592 162.288 196.071 162.03 195.548 161.776C192.358 160.226 189.12 158.813 185.833 157.537L185.795 157.523L172.478 161.494L176.114 173.655L202.927 165.657L202.683 165.519ZM176.279 173.357L172.781 161.656L185.787 157.776C188.956 159.007 192.09 160.371 195.187 161.867C195.725 162.128 196.26 162.391 196.794 162.658C198.659 163.591 200.501 164.568 202.319 165.589L176.279 173.357ZM165.31 179.139L165.379 179.37L174.495 176.651L175.495 179.994L166.378 182.713L166.447 182.944L175.793 180.156L174.656 176.352L165.31 179.139ZM178.494 181.611L179.192 183.947L179.417 183.857L178.794 181.772L214.34 171.169L214.271 170.938L178.494 181.611ZM212.583 165.289L212.514 165.058L176.735 175.731L177.872 179.536L213.65 168.864L213.582 168.633L178.034 179.236L177.034 175.892L212.583 165.289ZM186.012 154.946C180.563 152.855 174.966 151.172 169.267 149.912L168.569 147.577L168.345 147.667L169.048 150.02L169.284 150.162C174.961 151.421 180.536 153.1 185.963 155.185L186.002 155.2L207.637 148.746L207.568 148.516L186.012 154.946ZM169.482 159.877L160.365 162.597L160.434 162.828L169.78 160.039L166.324 148.48L166.099 148.57L169.482 159.877ZM208.258 150.822L189.238 156.495L189.548 156.625C192.465 157.851 195.375 159.207 198.277 160.691C198.689 160.902 199.101 161.116 199.513 161.333C201.562 162.407 203.594 163.542 205.611 164.736L205.835 164.792L211.894 162.984L211.825 162.753L205.781 164.557C203.785 163.373 201.771 162.248 199.739 161.18C199.333 160.967 198.926 160.755 198.518 160.545C195.678 159.087 192.822 157.751 189.951 156.534L208.328 151.052L208.258 150.822ZM167.068 185.019L167.137 185.249L176.252 182.529L176.945 184.849L177.17 184.759L176.414 182.23L167.068 185.019ZM161.053 164.902L161.122 165.133L170.239 162.414L173.737 174.115L164.621 176.834L164.69 177.065L174.036 174.277L170.399 162.115L161.053 164.902ZM182.071 156.145C178.138 154.759 174.073 153.545 169.989 152.536L169.784 152.485L171.857 159.419L182.42 156.268L182.071 156.145ZM172.02 159.12L170.136 152.82C174.023 153.787 177.891 154.94 181.642 156.25L172.02 159.12ZM202.681 165.519C200.85 164.485 198.993 163.495 197.11 162.548C196.59 162.288 196.069 162.03 195.546 161.776C192.357 160.226 189.119 158.813 185.832 157.537L185.794 157.523L172.478 161.494L176.114 173.655L202.927 165.657L202.681 165.519ZM176.278 173.357L172.779 161.656L185.785 157.776C188.955 159.007 192.088 160.371 195.185 161.867C195.723 162.128 196.259 162.391 196.793 162.658C198.658 163.591 200.499 164.568 202.317 165.589L176.278 173.357ZM182.073 156.145C178.139 154.759 174.074 153.545 169.99 152.536L169.785 152.485L171.858 159.419L182.421 156.268L182.073 156.145ZM172.021 159.12L170.138 152.82C174.024 153.787 177.892 154.94 181.643 156.25L172.021 159.12ZM202.683 165.519C200.852 164.485 198.995 163.495 197.111 162.548C196.592 162.288 196.071 162.03 195.548 161.776C192.358 160.226 189.12 158.813 185.833 157.537L185.795 157.523L172.478 161.494L176.114 173.655L202.927 165.657L202.683 165.519ZM176.279 173.357L172.781 161.656L185.787 157.776C188.956 159.007 192.09 160.371 195.187 161.867C195.725 162.128 196.26 162.391 196.794 162.658C198.659 163.591 200.501 164.568 202.319 165.589L176.279 173.357Z" fill="white"/>
<path d="M185.134 157.231C186.007 160.151 182.659 168.235 182.659 168.235C182.659 168.235 175.421 163.31 174.549 160.39C174.341 159.696 174.272 158.968 174.346 158.247C174.42 157.526 174.636 156.827 174.981 156.19C175.325 155.552 175.792 154.989 176.355 154.531C176.917 154.074 177.565 153.732 178.26 153.525C178.955 153.317 179.684 153.248 180.406 153.322C181.127 153.396 181.827 153.612 182.465 153.956C183.104 154.3 183.668 154.767 184.126 155.329C184.584 155.891 184.926 156.537 185.134 157.231Z" fill="#F2F2F2"/>
<path d="M182.193 157.86C182.336 158.338 182.334 158.848 182.187 159.324C182.04 159.801 181.754 160.224 181.367 160.539C180.979 160.853 180.507 161.046 180.01 161.093C179.513 161.14 179.013 161.038 178.573 160.801C178.134 160.564 177.775 160.202 177.541 159.761C177.308 159.32 177.21 158.82 177.261 158.324C177.312 157.828 177.51 157.358 177.828 156.973C178.147 156.589 178.572 156.308 179.051 156.165C179.692 155.974 180.384 156.045 180.973 156.363C181.562 156.68 182.001 157.219 182.193 157.86Z" fill="#1E66FF"/>
<path d="M183.374 172.111C184.196 172.111 184.863 171.445 184.863 170.624C184.863 169.803 184.196 169.137 183.374 169.137C182.551 169.137 181.885 169.803 181.885 170.624C181.885 171.445 182.551 172.111 183.374 172.111Z" fill="#F2F2F2"/>
<path d="M199.621 151.07L189.273 154.158C189.26 154.162 189.247 154.165 189.233 154.166L191.596 144.239C191.61 144.178 191.64 144.121 191.684 144.075C191.727 144.028 191.782 143.995 191.842 143.977C191.903 143.958 191.967 143.957 192.029 143.972C192.09 143.987 192.147 144.018 192.192 144.062L197.176 148.764L197.415 148.989L199.621 151.07Z" fill="white"/>
<path opacity="0.2" d="M199.62 151.069L196.087 152.123L197.069 149.09L197.14 148.871L197.176 148.762L197.414 148.987L199.62 151.069Z" fill="black"/>
<path d="M205.382 149.351L196.432 152.021L197.414 148.987L197.485 148.769L198.764 144.815C198.789 144.753 198.827 144.697 198.875 144.651C198.923 144.604 198.98 144.568 199.043 144.545C199.106 144.522 199.173 144.513 199.24 144.517C199.306 144.522 199.371 144.541 199.431 144.572C199.446 144.581 199.461 144.592 199.475 144.603L205.382 149.351Z" fill="white"/>
<path d="M98.2546 251.576L123.108 252.131C124.801 252.008 126.235 250.834 126.557 249.31C126.71 248.541 126.561 247.742 126.14 247.079C125.72 246.416 125.061 245.94 124.299 245.749C119.006 244.182 117.572 242.447 115.008 239.527C111.974 234.356 111.735 234.577 109.727 238.066C105.259 242.217 102.261 240.93 98.0967 238.368L95.3695 248.177C95.2532 248.583 95.2394 249.012 95.3292 249.425C95.4191 249.838 95.6098 250.222 95.8845 250.543C96.1803 250.878 96.5457 251.143 96.955 251.322C97.3644 251.5 97.8081 251.587 98.2546 251.576Z" fill="#090814"/>
</svg>
