<svg width="32" height="32" viewBox="0 0 32 32" fill="none" xmlns="http://www.w3.org/2000/svg">
<path d="M15.9934 0C11.7506 0.00163162 7.68232 1.68842 4.68311 4.68934C1.68389 7.69026 -0.00058462 11.7596 1.52203e-07 16.0023C0.000652842 20.2452 1.68615 24.3138 4.68637 27.3136C7.68625 30.3138 11.7552 31.9993 15.9975 32C20.2401 32.0007 24.3093 30.3162 27.3104 27.3168C30.3113 24.3176 31.998 20.2492 32 16.0064C31.9948 11.7625 30.3067 7.69418 27.3059 4.69343C24.3053 1.69285 20.2366 0.00526301 15.9934 0ZM25.7917 25.1079C24.1872 22.8696 21.8673 21.2458 19.2153 20.5044C20.8847 19.5444 22.0435 17.8945 22.3803 15.9985C22.7168 14.1022 22.1969 12.1543 20.9598 10.6783C19.7227 9.20233 17.8956 8.34997 15.9701 8.34997C14.0444 8.34997 12.2173 9.20233 10.9803 10.6783C9.74348 12.1543 9.22336 14.1021 9.55978 15.9985C9.89654 17.8944 11.0553 19.5443 12.7248 20.5044C10.0728 21.2458 7.75291 22.8696 6.14871 25.1079C3.76919 22.5498 2.48445 19.1629 2.56832 15.6704C2.65251 12.1777 4.09909 8.85672 6.59874 6.41669C9.09872 3.97641 12.4536 2.61012 15.9476 2.61012C19.4408 2.61012 22.7959 3.97641 25.2956 6.41669C27.7952 8.85697 29.2418 12.178 29.326 15.6704C29.4102 19.1628 28.1251 22.5497 25.7459 25.1079H25.7917Z" fill="black"/>
</svg>
